<svg width="1200" height="630" viewBox="0 0 1200 630" xmlns="http://www.w3.org/2000/svg">
<rect width="1200" height="630" fill="#0A0C0F"/>

<!-- Grid -->
<line x1="0" y1="150" x2="1200" y2="150" stroke="#00D27A" stroke-width="0.5" opacity="0.06"/>
<line x1="0" y1="300" x2="1200" y2="300" stroke="#00D27A" stroke-width="0.5" opacity="0.06"/>
<line x1="0" y1="450" x2="1200" y2="450" stroke="#00D27A" stroke-width="0.5" opacity="0.06"/>
<line x1="200" y1="0" x2="200" y2="630" stroke="#00D27A" stroke-width="0.5" opacity="0.06"/>
<line x1="400" y1="0" x2="400" y2="630" stroke="#00D27A" stroke-width="0.5" opacity="0.06"/>
<line x1="600" y1="0" x2="600" y2="630" stroke="#00D27A" stroke-width="0.5" opacity="0.06"/>
<line x1="800" y1="0" x2="800" y2="630" stroke="#00D27A" stroke-width="0.5" opacity="0.06"/>
<line x1="1000" y1="0" x2="1000" y2="630" stroke="#00D27A" stroke-width="0.5" opacity="0.06"/>

<!-- Glow -->
<circle cx="600" cy="315" r="400" fill="#00D27A" opacity="0.03"/>

<!-- Logo icon -->
<rect x="480" y="140" width="100" height="100" fill="#00D27A" rx="22"/>
<g transform="translate(480,140) scale(5.55)">
  <path d="M9 2L15 5.5V12.5L9 16L3 12.5V5.5L9 2Z" stroke="#000" stroke-width="1.5" fill="none"/>
  <path d="M9 6L11.5 7.5V10.5L9 12L6.5 10.5V7.5L9 6Z" fill="#000"/>
</g>

<!-- Name -->
<text x="600" y="310" text-anchor="middle" font-family="Arial Black, sans-serif" font-size="64" font-weight="900" fill="#F0F2F5">the<tspan fill="#00D27A">safechain</tspan></text>

<!-- Slogan -->
<text x="600" y="375" text-anchor="middle" font-family="Arial, sans-serif" font-size="24" fill="#6B7280">Know what's safe before you risk anything</text>

<!-- URL -->
<text x="600" y="480" text-anchor="middle" font-family="Arial, monospace" font-size="18" fill="#00D27A" opacity="0.7">thesafechain.xyz</text>

<!-- Chain pills -->
<rect x="280" y="510" width="60" height="28" rx="14" fill="rgba(0,210,122,0.1)" stroke="rgba(0,210,122,0.3)" stroke-width="1"/>
<text x="310" y="529" text-anchor="middle" font-family="Arial" font-size="13" fill="#00D27A">ETH</text>

<rect x="355" y="510" width="60" height="28" rx="14" fill="rgba(0,210,122,0.1)" stroke="rgba(0,210,122,0.3)" stroke-width="1"/>
<text x="385" y="529" text-anchor="middle" font-family="Arial" font-size="13" fill="#00D27A">BSC</text>

<rect x="430" y="510" width="70" height="28" rx="14" fill="rgba(0,210,122,0.1)" stroke="rgba(0,210,122,0.3)" stroke-width="1"/>
<text x="465" y="529" text-anchor="middle" font-family="Arial" font-size="13" fill="#00D27A">SOL</text>

<rect x="515" y="510" width="80" height="28" rx="14" fill="rgba(0,210,122,0.1)" stroke="rgba(0,210,122,0.3)" stroke-width="1"/>
<text x="555" y="529" text-anchor="middle" font-family="Arial" font-size="13" fill="#00D27A">MATIC</text>

<rect x="610" y="510" width="60" height="28" rx="14" fill="rgba(0,210,122,0.1)" stroke="rgba(0,210,122,0.3)" stroke-width="1"/>
<text x="640" y="529" text-anchor="middle" font-family="Arial" font-size="13" fill="#00D27A">ARB</text>

<rect x="685" y="510" width="70" height="28" rx="14" fill="rgba(0,210,122,0.1)" stroke="rgba(0,210,122,0.3)" stroke-width="1"/>
<text x="720" y="529" text-anchor="middle" font-family="Arial" font-size="13" fill="#00D27A">BASE</text>

<rect x="770" y="510" width="70" height="28" rx="14" fill="rgba(0,210,122,0.1)" stroke="rgba(0,210,122,0.3)" stroke-width="1"/>
<text x="805" y="529" text-anchor="middle" font-family="Arial" font-size="13" fill="#00D27A">AVAX</text>
</svg>
